<?xml version="1.0" encoding="UTF-8"?>
<svg xmlns="http://www.w3.org/2000/svg" xmlns:xlink="http://www.w3.org/1999/xlink" width="30px" height="30px" viewBox="0 0 30 30" version="1.1">
<g id="surface1">
<path style="fill-rule:nonzero;fill:rgb(100%,44.705883%,21.960784%);fill-opacity:1;stroke-width:1;stroke-linecap:butt;stroke-linejoin:miter;stroke:rgb(0%,0%,0%);stroke-opacity:1;stroke-miterlimit:4;" d="M 229.961313 103.34532 C 224.143645 90.075807 210.874132 73.668675 180.347716 87.13429 L 153.416487 98.965727 L 127.727233 40.592944 C 112.300607 5.425466 73.930144 2.810784 54.45076 21.440395 C 40.331475 34.906009 33.925504 56.346405 43.207626 77.459965 L 134.198572 285.784782 C 112.039139 268.985447 69.681285 269.181549 50.724838 288.726299 L 51.247774 287.941895 C 31.11472 308.663252 34.44844 338.078429 65.040224 363.702316 L 228.000301 492.017852 L 461.556803 389.39157 L 462.798777 368.997048 C 466.132497 316.04973 456.719641 263.102412 435.344612 214.534687 L 417.695506 174.333946 C 416.780368 172.2422 415.734495 170.215821 414.688622 168.25481 C 402.334248 145.703174 374.749349 136.421052 351.217208 146.68368 L 333.633469 154.331626 L 313.82725 109.162988 C 305.133431 89.422137 281.993492 80.46685 262.318007 89.291402 Z M 229.961313 103.34532 " transform="matrix(0.0597587,0,0,0.0597587,0,0)"/>
<path style="fill-rule:nonzero;fill:rgb(0%,0%,0%);fill-opacity:1;stroke-width:1;stroke-linecap:butt;stroke-linejoin:miter;stroke:rgb(0%,0%,0%);stroke-opacity:1;stroke-miterlimit:4;" d="M 444.496001 210.547297 L 426.846895 170.346556 C 425.801022 167.993341 424.624415 165.705494 423.447808 163.483014 C 416.257431 150.344235 404.556728 140.47381 390.372076 135.702014 C 376.187424 130.930219 360.891532 131.518523 347.229817 137.532292 L 338.797466 141.12748 L 322.978638 105.175598 C 317.683906 93.148059 308.009582 83.931304 295.720575 79.159508 C 283.496935 74.45308 270.227422 74.779915 258.26525 80.140014 L 234.340906 90.533377 C 230.157414 84.192772 225.058784 79.486344 218.979647 76.348725 C 207.14821 70.204221 192.767457 70.727158 176.294958 77.982901 L 158.515118 85.826948 L 136.878621 36.540186 C 128.577005 17.714473 113.215746 4.771795 94.782235 1.11124 C 77.394598 -2.353214 59.745492 2.549315 47.521852 14.184652 C 29.088341 31.768391 23.793609 58.176682 33.990871 81.447355 L 114.719188 266.109297 C 90.46801 260.226262 62.294807 264.867323 45.887675 279.509544 C 45.234005 279.901746 44.645701 280.424683 44.057398 281.012986 C 33.271833 292.125386 27.911734 305.591 28.630772 319.841019 C 29.545911 337.882328 39.939273 355.662168 58.568885 371.415629 C 58.699619 371.480996 58.764986 371.546363 58.830353 371.61173 L 221.855798 499.8619 C 223.620709 501.299975 225.843189 502.019012 228.000301 502.019012 C 229.37301 502.019012 230.745718 501.757544 232.053059 501.169241 L 465.544194 398.542958 C 469.008648 397.039516 471.296495 393.705796 471.492596 389.979873 L 472.799937 369.650718 C 476.199024 315.330692 466.393965 260.356996 444.496001 210.547297 Z M 352.459182 221.986532 C 354.158725 225.777821 357.81928 228.000301 361.675937 228.000301 C 362.983278 228.000301 364.355986 227.738833 365.663328 227.15053 C 370.696591 224.92805 373.049805 219.045014 370.827325 213.946384 L 346.837615 159.495624 L 355.204598 155.835068 C 374.226412 147.598819 395.993643 154.985297 405.864069 173.026605 C 406.844575 174.791516 407.694346 176.556426 408.544118 178.386704 L 426.193224 218.587445 C 446.783848 265.455626 456.000603 317.291704 452.797617 368.408744 L 451.947845 382.658763 L 229.503744 480.447883 L 71.315461 355.989003 C 57.130809 343.961464 49.221395 331.14952 48.633092 318.860513 C 48.240889 310.820365 50.986306 303.36852 56.803974 296.635713 C 57.196177 296.308878 57.588379 296.04741 57.915214 295.655207 C 72.492068 280.620784 108.90152 279.574911 127.7926 293.498095 L 168.385544 332.456862 C 170.281188 334.287139 172.765137 335.267645 175.314452 335.267645 C 177.929134 335.267645 180.543817 334.221772 182.504828 332.195393 C 186.296118 328.208003 186.165384 321.867398 182.24336 318.010742 L 142.565555 279.967113 L 52.359014 73.407207 C 44.057398 54.646861 51.574609 37.978261 61.314301 28.630772 C 68.700779 21.571129 80.00928 18.564245 90.860212 20.721358 C 103.018485 23.139939 112.888911 31.637657 118.575845 44.645701 L 186.819054 199.827099 C 188.453231 203.618389 192.113786 205.840869 195.970443 205.840869 C 197.343151 205.840869 198.715859 205.5794 200.0232 204.991097 C 205.056464 202.768617 207.344311 196.885581 205.121831 191.786951 L 166.555266 104.129725 L 184.335106 96.285678 C 194.989937 91.57925 203.553021 90.860212 209.828259 94.063198 C 214.273219 96.416412 217.933774 100.861372 220.809925 107.332711 L 261.010666 198.91196 C 262.71021 202.637883 266.370765 204.860363 270.227422 204.860363 C 271.534763 204.860363 272.907471 204.598894 274.214812 204.010591 C 279.248076 201.788111 281.60129 195.905076 279.313443 190.806445 L 243.165459 108.509318 L 266.305398 98.442791 C 266.305398 98.442791 266.370765 98.442791 266.436132 98.442791 C 273.430407 95.239805 281.339822 95.043704 288.530198 97.854487 C 295.785942 100.665271 301.538243 106.090737 304.675862 113.215746 Z M 352.459182 221.986532 " transform="matrix(0.0597587,0,0,0.0597587,0,0)"/>
<path style="fill-rule:nonzero;fill:rgb(0%,0%,0%);fill-opacity:1;stroke-width:1;stroke-linecap:butt;stroke-linejoin:miter;stroke:rgb(0%,0%,0%);stroke-opacity:1;stroke-miterlimit:4;" d="M 398.020022 391.025746 C 394.163365 391.025746 390.50281 388.803266 388.868633 385.011977 C 386.646153 379.978713 388.934001 374.095678 393.967264 371.873198 L 405.602601 366.774568 C 410.635864 364.552088 416.518899 366.839935 418.741379 371.938565 C 420.963859 376.971829 418.676012 382.854864 413.642749 385.077344 L 402.007412 390.175975 C 400.700071 390.764278 399.39273 391.025746 398.020022 391.025746 Z M 398.020022 391.025746 " transform="matrix(0.0597587,0,0,0.0597587,0,0)"/>
<path style="fill-rule:nonzero;fill:rgb(0%,0%,0%);fill-opacity:1;stroke-width:1;stroke-linecap:butt;stroke-linejoin:miter;stroke:rgb(0%,0%,0%);stroke-opacity:1;stroke-miterlimit:4;" d="M 239.047334 461.033867 C 235.190678 461.033867 231.530123 458.811387 229.830579 455.020097 C 227.608099 449.986834 229.961313 444.103798 234.994577 441.881318 L 358.799786 387.561292 C 363.898417 385.338812 369.781452 387.626659 372.003932 392.659923 C 374.226412 397.758553 371.938565 403.641589 366.839935 405.864069 L 243.034725 460.184095 C 241.727384 460.772398 240.354676 461.033867 239.047334 461.033867 Z M 239.047334 461.033867 " transform="matrix(0.0597587,0,0,0.0597587,0,0)"/>
</g>
</svg>
